<svg width="1449" height="194" viewBox="0 0 1449 194" fill="none" xmlns="http://www.w3.org/2000/svg">
<g clip-path="url(#clip0)">
<path d="M153.849 118.448C153.849 133.254 144.047 142.308 132.063 142.308C120.08 142.308 110.277 133.254 110.277 118.448V110.446C110.277 95.6407 120.08 86.5862 132.161 86.5862C144.243 86.5862 153.947 95.6407 153.947 110.446L153.849 118.448ZM143.336 109.834C143.336 101.196 138.288 96.5951 132.063 96.5951C125.839 96.5951 120.717 101.196 120.717 109.834V119.085C120.717 127.699 125.765 132.324 132.063 132.324C138.361 132.324 143.336 127.699 143.336 119.085V109.834Z" fill="black"/>
<path d="M203.768 118.448C203.768 133.254 193.965 142.308 181.982 142.308C169.998 142.308 160.073 133.254 160.073 118.448V110.446C160.073 95.6407 169.876 86.5862 181.982 86.5862C194.088 86.5862 203.768 95.6407 203.768 110.446V118.448ZM193.23 109.834C193.23 101.196 188.182 96.5951 181.982 96.5951C175.782 96.5951 170.611 101.196 170.611 109.834V119.085C170.611 127.699 175.659 132.324 181.982 132.324C188.304 132.324 193.23 127.699 193.23 119.085V109.834Z" fill="black"/>
<path d="M233.028 114.435L249.349 131.687C250.364 132.648 250.97 133.963 251.04 135.358C251.056 136.058 250.932 136.754 250.674 137.406C250.416 138.057 250.031 138.65 249.539 139.149C249.048 139.649 248.462 140.045 247.814 140.315C247.167 140.584 246.472 140.721 245.771 140.717C245.106 140.728 244.446 140.603 243.831 140.351C243.216 140.098 242.659 139.723 242.193 139.249L221.878 118.179V135.309C221.871 136.703 221.314 138.037 220.327 139.022C219.341 140.008 218.004 140.564 216.609 140.571C215.917 140.574 215.232 140.44 214.592 140.176C213.953 139.913 213.373 139.525 212.885 139.035C212.397 138.546 212.011 137.964 211.75 137.325C211.489 136.685 211.358 136 211.365 135.309V67.1557C211.358 66.465 211.489 65.78 211.75 65.1403C212.011 64.5006 212.397 63.9191 212.885 63.4296C213.373 62.94 213.953 62.5522 214.592 62.2886C215.232 62.0251 215.917 61.891 216.609 61.8943C218.004 61.9008 219.341 62.4571 220.327 63.4425C221.314 64.4278 221.871 65.7623 221.878 67.1557V110.666L242.193 89.6452C242.66 89.1788 243.22 88.8158 243.836 88.5797C244.453 88.3436 245.112 88.2397 245.771 88.2747C247.166 88.2812 248.503 88.8376 249.49 89.8229C250.476 90.8082 251.033 92.1427 251.04 93.5361C250.977 94.9615 250.372 96.3093 249.349 97.3048L233.028 114.435Z" fill="black"/>
<path d="M326.396 109.932V135.456C326.396 136.155 326.257 136.848 325.986 137.492C325.715 138.137 325.318 138.722 324.818 139.211C324.319 139.701 323.726 140.087 323.076 140.345C322.425 140.604 321.729 140.73 321.029 140.717C320.335 140.724 319.647 140.592 319.005 140.33C318.363 140.068 317.78 139.681 317.289 139.191C316.798 138.701 316.411 138.119 316.148 137.477C315.886 136.836 315.754 136.149 315.76 135.456V108.88C315.76 100.78 310.859 96.6441 305.027 96.6441C302.498 96.6166 300.041 97.4834 298.092 99.0912C299.368 102.554 300.007 106.218 299.979 109.908V135.456C299.988 136.148 299.86 136.834 299.6 137.475C299.34 138.117 298.955 138.699 298.466 139.19C297.977 139.68 297.395 140.068 296.755 140.33C296.114 140.592 295.427 140.724 294.734 140.717C293.337 140.717 291.997 140.163 291.009 139.176C290.021 138.19 289.465 136.851 289.465 135.456V108.88C289.465 100.78 284.711 96.6441 278.732 96.6441C272.752 96.6441 267.998 100.829 267.998 108.88V135.456C267.998 136.851 267.443 138.19 266.455 139.176C265.467 140.163 264.127 140.717 262.729 140.717C261.332 140.717 259.992 140.163 259.004 139.176C258.016 138.19 257.461 136.851 257.461 135.456V109.932C257.461 95.4205 267.042 86.5862 278.732 86.5862C283.77 86.6393 288.635 88.4288 292.504 91.6518C294.148 90.0163 296.102 88.7256 298.253 87.8557C300.404 86.9857 302.707 86.5541 305.027 86.5862C316.814 86.5862 326.396 95.4205 326.396 109.932Z" fill="black"/>
<path d="M352.397 142.308C347.502 142.276 342.819 140.313 339.367 136.848C335.915 133.383 333.975 128.695 333.968 123.808C333.968 119.264 335.776 114.907 338.993 111.695C342.21 108.482 346.573 106.677 351.123 106.677C354.453 106.593 357.714 107.627 360.386 109.614V107.412C360.386 101.098 357.347 98.1613 351.025 98.1613H340.389C339.732 98.1613 339.082 98.0322 338.476 97.7813C337.869 97.5304 337.318 97.1627 336.854 96.6991C336.39 96.2355 336.022 95.6852 335.77 95.0795C335.519 94.4738 335.39 93.8247 335.39 93.1691C335.39 92.5135 335.519 91.8643 335.77 91.2586C336.022 90.653 336.39 90.1026 336.854 89.6391C337.318 89.1755 337.869 88.8078 338.476 88.5569C339.082 88.306 339.732 88.1769 340.389 88.1769H351.441C363.694 88.1769 371.046 95.5184 371.046 107.607V123.808C371.04 126.246 370.552 128.658 369.611 130.908C368.67 133.158 367.294 135.2 365.562 136.918C363.83 138.637 361.776 139.997 359.517 140.922C357.258 141.847 354.838 142.318 352.397 142.308V142.308ZM351.76 115.732C350.033 115.717 348.341 116.216 346.899 117.165C345.457 118.114 344.331 119.47 343.663 121.061C342.996 122.651 342.817 124.404 343.151 126.096C343.484 127.788 344.314 129.343 345.535 130.562C346.756 131.781 348.313 132.61 350.007 132.943C351.702 133.276 353.457 133.098 355.05 132.431C356.642 131.765 358 130.64 358.95 129.2C359.901 127.76 360.4 126.07 360.386 124.346C360.373 122.065 359.46 119.882 357.845 118.269C356.23 116.656 354.044 115.745 351.76 115.732V115.732Z" fill="black"/>
<path d="M400.306 98.1613H396.998C391.533 98.1613 388.69 101.098 388.69 106.359V135.456C388.69 136.851 388.135 138.19 387.147 139.176C386.159 140.163 384.819 140.717 383.422 140.717C382.728 140.724 382.04 140.592 381.398 140.33C380.755 140.068 380.172 139.681 379.681 139.191C379.191 138.701 378.803 138.118 378.541 137.477C378.278 136.836 378.146 136.149 378.153 135.456V105.943C378.153 94.5884 384.696 88.079 396.042 88.079H400.38C401.043 88.079 401.699 88.2094 402.312 88.4627C402.924 88.716 403.481 89.0874 403.949 89.5555C404.418 90.0236 404.79 90.5793 405.044 91.191C405.297 91.8026 405.428 92.4581 405.428 93.1201C405.409 94.4638 404.861 95.746 403.902 96.6893C402.944 97.6327 401.652 98.1614 400.306 98.1613V98.1613Z" fill="black"/>
<path d="M433.022 114.435L449.343 131.687C450.358 132.648 450.964 133.963 451.034 135.358C451.05 136.058 450.926 136.754 450.668 137.406C450.41 138.057 450.024 138.65 449.533 139.149C449.042 139.649 448.455 140.045 447.808 140.315C447.161 140.584 446.466 140.721 445.765 140.717C445.1 140.728 444.44 140.603 443.825 140.351C443.21 140.098 442.652 139.723 442.187 139.249L421.872 118.179V135.309C421.875 136.003 421.741 136.691 421.478 137.334C421.215 137.976 420.828 138.561 420.339 139.054C419.849 139.547 419.268 139.939 418.627 140.208C417.986 140.476 417.298 140.616 416.603 140.62C415.907 140.623 415.217 140.487 414.575 140.221C413.932 139.954 413.349 139.562 412.861 139.067C412.372 138.572 411.988 137.985 411.73 137.34C411.472 136.694 411.345 136.004 411.358 135.309V67.1557C411.352 66.465 411.483 65.78 411.744 65.1403C412.005 64.5006 412.391 63.9191 412.878 63.4296C413.366 62.94 413.947 62.5522 414.586 62.2886C415.226 62.0251 415.911 61.891 416.603 61.8943C417.994 61.9072 419.324 62.4664 420.305 63.451C421.287 64.4356 421.841 65.7665 421.847 67.1557V110.666L442.163 89.6452C442.629 89.1788 443.189 88.8158 443.805 88.5797C444.422 88.3436 445.081 88.2397 445.74 88.2747C447.136 88.2812 448.472 88.8376 449.459 89.8229C450.446 90.8082 451.003 92.1427 451.009 93.5361C450.947 94.9615 450.342 96.3093 449.318 97.3048L433.022 114.435Z" fill="black"/>
<path d="M614.514 93.4383V119.501C614.514 127.576 619.66 132.324 625.86 132.324C632.06 132.324 637.133 127.576 637.133 119.501V93.4383C637.133 92.0429 637.688 90.7046 638.676 89.7179C639.664 88.7312 641.004 88.1769 642.402 88.1769C643.095 88.1703 643.783 88.302 644.426 88.5641C645.068 88.8262 645.651 89.2135 646.142 89.7033C646.632 90.1932 647.02 90.7758 647.283 91.4171C647.545 92.0584 647.677 92.7455 647.67 93.4383V118.448C647.67 133.254 637.868 142.308 625.86 142.308C613.852 142.308 603.976 133.254 603.976 118.448V93.4383C603.979 92.74 604.121 92.0492 604.393 91.4059C604.665 90.7626 605.062 90.1795 605.561 89.6903C606.06 89.2011 606.651 88.8154 607.3 88.5557C607.949 88.2959 608.644 88.1672 609.343 88.1769C610.029 88.18 610.708 88.319 611.341 88.5857C611.973 88.8525 612.546 89.2417 613.027 89.7309C613.508 90.2202 613.887 90.7997 614.142 91.436C614.397 92.0724 614.523 92.7529 614.514 93.4383Z" fill="black"/>
<path d="M687.664 91.1135V67.1557C687.671 65.7623 688.228 64.4278 689.215 63.4425C690.201 62.4572 691.538 61.9008 692.933 61.8943C693.627 61.8878 694.315 62.0194 694.957 62.2815C695.599 62.5436 696.183 62.9309 696.673 63.4208C697.164 63.9107 697.552 64.4933 697.814 65.1346C698.077 65.7759 698.208 66.463 698.202 67.1557V118.35C698.202 133.376 688.399 142.308 676.416 142.308C664.433 142.308 654.508 133.254 654.508 118.35V109.394C654.508 95.2247 663.771 86.6107 675.142 86.6107C679.714 86.6075 684.144 88.2002 687.664 91.1135V91.1135ZM665.045 119.085C665.045 127.699 670.093 132.324 676.416 132.324C682.739 132.324 687.664 127.699 687.664 119.085V108.244C687.71 105.201 686.547 102.265 684.43 100.077C682.312 97.8894 679.413 96.6286 676.367 96.5706C670.044 96.5706 664.996 101.196 664.996 109.834L665.045 119.085Z" fill="black"/>
<path d="M738.196 91.1135V67.1557C738.202 65.7623 738.759 64.4278 739.746 63.4425C740.733 62.4572 742.069 61.9008 743.464 61.8943C744.158 61.8878 744.846 62.0194 745.489 62.2815C746.131 62.5436 746.714 62.9309 747.205 63.4208C747.695 63.9107 748.083 64.4933 748.346 65.1346C748.608 65.7759 748.74 66.463 748.733 67.1557V118.35C748.733 133.376 738.931 142.308 726.947 142.308C714.964 142.308 705.063 133.254 705.063 118.35V109.394C705.063 95.2247 714.302 86.6107 725.673 86.6107C730.245 86.6075 734.675 88.2002 738.196 91.1135V91.1135ZM715.577 119.085C715.577 127.699 720.625 132.324 726.947 132.324C733.27 132.324 738.196 127.699 738.196 119.085V108.244C738.242 105.21 737.085 102.281 734.979 100.094C732.872 97.9078 729.985 96.6413 726.947 96.5706C720.625 96.5706 715.577 101.196 715.577 109.834V119.085Z" fill="black"/>
<path d="M800 93.4383V145.245C800 158.9 791.888 167 778.214 167H763.364C762.038 167 760.766 166.474 759.829 165.538C758.891 164.602 758.364 163.332 758.364 162.008C758.364 160.684 758.891 159.414 759.829 158.478C760.766 157.542 762.038 157.016 763.364 157.016H777.479C785.37 157.016 789.462 152.904 789.462 145.147V138.001C785.852 140.797 781.411 142.313 776.842 142.308C764.956 142.308 756.232 132.838 756.232 119.819V93.4383C756.183 92.7254 756.282 92.01 756.521 91.3366C756.761 90.6633 757.136 90.0463 757.625 89.524C758.113 89.0017 758.704 88.5852 759.36 88.3005C760.016 88.0158 760.724 87.8689 761.44 87.8689C762.155 87.8689 762.863 88.0158 763.52 88.3005C764.176 88.5852 764.767 89.0017 765.255 89.524C765.743 90.0463 766.119 90.6633 766.359 91.3366C766.598 92.01 766.696 92.7254 766.647 93.4383V119.28C766.647 127.478 771.794 132.201 778.018 132.201C780.86 132.224 783.607 131.177 785.71 129.267C787.813 127.357 789.118 124.726 789.364 121.899V93.4383C789.364 92.0429 789.919 90.7046 790.908 89.7179C791.896 88.7312 793.236 88.1769 794.633 88.1769C796.031 88.1769 797.371 88.7312 798.359 89.7179C799.347 90.7046 799.902 92.0429 799.902 93.4383H800Z" fill="black"/>
<path d="M558.738 72.6374C557.789 72.0444 556.807 71.5052 555.797 71.0222C548.5 67.6317 540.586 65.7663 532.541 65.5406H529.968C523.41 65.4532 516.894 66.5903 510.755 68.8932C508.231 69.6477 505.928 71.0012 504.041 72.8379C502.155 74.6746 500.742 76.94 499.923 79.4405C499.776 80.0033 499.654 80.5417 499.556 81.0801C499.521 81.5852 499.521 82.0922 499.556 82.5973C499.564 83.5308 499.756 84.4537 500.119 85.3137C505.021 79 513.696 72.9066 528.694 70.0923C529.87 69.8965 530.384 70.4594 528.988 71.0712C527.591 71.683 510.608 75.0601 501.173 86.8799C501.332 87.0713 501.504 87.2513 501.688 87.4182C503.007 88.514 504.678 89.0963 506.393 89.0578H507.594C508.016 89.0126 508.429 88.9054 508.819 88.7397C509.675 88.557 510.501 88.252 511.27 87.8343C512.151 87.3897 512.974 86.8391 513.72 86.1947C518.234 82.3621 523.226 79.1294 528.571 76.5773C534.796 72.0256 547.539 69.2358 558.738 72.6374Z" fill="#42B549"/>
<path d="M595.056 106.066C592.37 102.988 589.018 100.562 585.253 98.9689C588.137 97.3516 590.764 95.3144 593.046 92.9244C595.325 90.5171 596.663 87.3742 596.82 84.0656C597.555 75.8269 592.466 69.3582 581.553 64.6596C570.027 59.8248 557.685 57.2253 545.186 57H542C531.403 56.8046 520.854 58.461 510.829 61.8943C501.32 65.2388 495.643 70.5165 493.797 77.7275C493.634 78.2659 493.503 78.8134 493.405 79.3671C493.405 79.881 493.258 80.3949 493.16 80.8843C493.183 81.1448 493.183 81.4069 493.16 81.6674C493.16 81.9611 493.16 82.2058 493.16 82.4505C493.003 85.6894 494.14 88.858 496.321 91.2603C494.932 94.1132 493.942 97.1435 493.38 100.266C493.135 102.028 494.753 102.713 494.998 101.416C495.386 98.3222 496.28 95.3129 497.644 92.5084C500.102 94.5349 503.181 95.6579 506.368 95.6897C507.14 95.6908 507.91 95.6336 508.672 95.5184C509.498 95.3832 510.316 95.2034 511.123 94.98C511.858 94.7353 512.618 94.4171 513.573 94.0501C514.377 93.6943 515.148 93.2684 515.877 92.7775C514.333 99.4583 512.814 106.115 511.294 112.82C509.775 119.525 508.231 126.206 506.614 132.96C506.325 134.107 505.682 135.135 504.776 135.897C503.873 136.769 502.713 137.327 501.467 137.487H501.1C500.619 137.462 500.138 137.535 499.686 137.704C499.235 137.872 498.824 138.132 498.478 138.466C497.88 139.091 497.554 139.927 497.571 140.791C497.576 141.629 497.9 142.434 498.478 143.042C498.853 143.41 499.304 143.692 499.799 143.869C500.294 144.046 500.821 144.115 501.345 144.07H562.144C563.782 144.063 565.418 143.965 567.045 143.776C568.768 143.559 570.478 143.249 572.167 142.847C578.163 141.553 583.832 139.055 588.831 135.505C593.829 132.078 597.333 126.881 598.634 120.969C598.796 120.3 598.919 119.621 599.001 118.938C599.075 118.312 599.116 117.683 599.124 117.053C599.215 113.008 597.76 109.079 595.056 106.066V106.066ZM566.678 117.102C566.675 117.352 566.633 117.599 566.555 117.836C566.251 120.755 565.251 123.557 563.639 126.01C562.177 128.415 560.322 130.557 558.15 132.348C556.824 133.488 555.377 134.481 553.837 135.309C552.493 135.972 551.079 136.481 549.622 136.826C548.018 137.236 546.375 137.466 544.72 137.512H539.599H537.148C537.393 137.022 537.614 136.533 537.834 136.043C538.055 135.554 538.202 135.04 538.373 134.453C540.236 126.296 542.106 118.089 543.985 109.834C545.864 101.579 547.735 93.422 549.597 85.3626C549.949 84.1005 550.675 82.9743 551.68 82.1324C552.602 81.2599 553.817 80.7624 555.086 80.7375C555.541 80.754 555.993 80.6754 556.415 80.5069C556.837 80.3383 557.22 80.0834 557.537 79.7586C558.056 79.1889 558.358 78.4548 558.389 77.6852C558.421 76.9156 558.18 76.1595 557.709 75.5495C557.195 74.8873 556.495 74.3931 555.699 74.1302L553.249 73.4694C552.442 73.2735 551.624 73.1345 550.798 73.0534C549.99 72.8874 549.171 72.781 548.347 72.7353H545.897C540.015 72.764 534.211 74.0752 528.89 76.5773L528.571 76.7241C523.215 79.2345 518.207 82.4259 513.671 86.2191C512.925 86.8636 512.102 87.4142 511.221 87.8587C510.452 88.2765 509.626 88.5815 508.77 88.7642C508.38 88.9298 507.967 89.037 507.545 89.0823H506.344C504.629 89.1208 502.958 88.5385 501.639 87.4427C501.455 87.2757 501.283 87.0958 501.124 86.9043C510.559 75.0845 527.37 71.7809 528.939 71.0957C530.507 70.4105 529.821 69.921 528.644 70.1168C513.647 72.931 505.07 79.0245 500.07 85.3382C499.707 84.4782 499.515 83.5553 499.507 82.6218C499.472 82.1167 499.472 81.6097 499.507 81.1046C499.507 80.5662 499.727 80.0278 499.874 79.465C500.693 76.9645 502.106 74.6991 503.992 72.8624C505.879 71.0256 508.182 69.6722 510.706 68.9177C516.845 66.6148 523.361 65.4777 529.919 65.5651H532.492C540.537 65.7908 548.451 67.6562 555.748 71.0467C556.758 71.5297 557.74 72.0689 558.689 72.6619C563.688 75.7942 565.983 79.8076 565.575 84.7019C565.314 87.9686 563.979 91.0574 561.777 93.4872C560.753 94.7554 559.478 95.7989 558.031 96.5526C556.585 97.3063 554.998 97.754 553.371 97.8676C552.226 97.857 551.108 98.2177 550.185 98.8955C549.544 99.3669 549.078 100.039 548.862 100.804V101.049C548.878 101.494 548.994 101.93 549.202 102.324C549.41 102.718 549.704 103.06 550.063 103.325C551.121 104.086 552.414 104.45 553.714 104.353C555.656 104.348 557.583 104.696 559.4 105.38C561.226 106.081 562.816 107.287 563.982 108.855C564.84 109.931 565.504 111.149 565.943 112.453C566.339 113.695 566.545 114.991 566.555 116.295L566.678 117.102Z" fill="black"/>
<path d="M65.7497 72.6374C64.8035 72.0393 63.8214 71.4999 62.8089 71.0222C55.5142 67.6252 47.5987 65.7594 39.5527 65.5406H36.9796C30.4221 65.4532 23.906 66.5903 17.7668 68.8932C15.2456 69.6474 12.9451 71.0011 11.0628 72.8381C9.18051 74.6751 7.77254 76.9407 6.95967 79.4405C6.79326 79.9763 6.67033 80.5246 6.59208 81.0801C6.55761 81.5852 6.55761 82.0922 6.59208 82.5973C6.60046 83.5308 6.79195 84.4537 7.15571 85.3137C12.0569 79.0245 20.6095 72.931 35.6072 70.0923C36.7835 69.8965 37.3227 70.4594 35.9013 71.0712C34.48 71.683 17.5463 75.0601 8.08694 86.8799C8.25849 87.0512 8.40552 87.2469 8.60157 87.4182C9.92472 88.5063 11.593 89.0876 13.3067 89.0578C13.7148 89.0823 14.124 89.0823 14.532 89.0578C14.9525 89.0051 15.3644 88.8982 15.7573 88.7397C16.6141 88.559 17.4397 88.2539 18.2079 87.8343C19.0879 87.3883 19.9108 86.8377 20.6585 86.1947C25.1789 82.371 30.1694 79.1391 35.5092 76.5773C41.6602 72.0256 54.5014 69.2358 65.7497 72.6374Z" fill="#42B549"/>
<path d="M101.994 106.066C99.3073 102.988 95.9552 100.562 92.1912 98.969C95.0446 97.35 97.6385 95.3125 99.8861 92.9245C102.174 90.5232 103.514 87.3767 103.66 84.0657C104.412 75.8106 99.3224 69.342 88.3927 64.6597C76.8974 59.8376 64.5899 57.2383 52.1238 57.0001H49.0115C38.3903 56.7991 27.8157 58.4556 17.7663 61.8944C8.2906 65.2552 2.61337 70.5411 0.734571 77.752C0.571953 78.2905 0.44103 78.8379 0.342474 79.3916L0.121919 80.9089C0.144944 81.1694 0.144944 81.4314 0.121919 81.692C0.121919 81.9856 0.121919 82.2303 0.121919 82.4751C-0.0283818 85.7056 1.1082 88.8642 3.2832 91.2604C1.88958 94.1052 0.891936 97.1268 0.317968 100.241C0.0729072 102.003 1.69031 102.689 1.93537 101.392C2.33491 98.3002 3.22848 95.2928 4.58202 92.484C7.03757 94.514 10.1184 95.6375 13.3062 95.6653C14.0773 95.6664 14.8473 95.6092 15.6097 95.494C16.4389 95.3757 17.2581 95.1958 18.0603 94.9556C18.7955 94.6864 19.5797 94.3928 20.511 94.0257C21.32 93.6647 22.0986 93.2392 22.839 92.7532C21.2216 99.4258 19.6451 106.107 18.1094 112.795C16.6145 119.476 15.0461 126.181 13.4287 132.862C13.1341 134 12.4917 135.018 11.5908 135.774C10.6947 136.642 9.54377 137.199 8.30694 137.365H7.91484C7.43402 137.341 6.95336 137.415 6.50241 137.584C6.05147 137.752 5.63979 138.011 5.2927 138.344C4.69552 138.969 4.36967 139.805 4.38597 140.669C4.39127 141.507 4.7154 142.312 5.2927 142.92C5.67481 143.285 6.13002 143.566 6.6284 143.743C7.12679 143.92 7.65708 143.99 8.18441 143.948H68.9839C70.6219 143.941 72.2581 143.843 73.8851 143.654C75.6083 143.439 77.3182 143.129 79.0069 142.724C85.0082 141.425 90.6847 138.928 95.6955 135.383C100.688 131.951 104.191 126.756 105.498 120.847C105.842 119.57 106.007 118.253 105.988 116.931C106.068 112.937 104.642 109.059 101.994 106.066V106.066ZM73.5175 117.102C73.5144 117.352 73.4731 117.6 73.395 117.837C73.1321 120.749 72.165 123.554 70.5768 126.01C69.117 128.409 67.2705 130.55 65.112 132.348C63.7664 133.486 62.3042 134.478 60.7499 135.309C59.4034 135.964 57.9902 136.473 56.5348 136.827C54.9313 137.234 53.2876 137.464 51.6336 137.512C49.9917 137.512 48.2763 137.512 46.4874 137.512H44.1103C44.3553 137.022 44.6004 136.533 44.7965 136.043C44.9925 135.554 45.164 135.04 45.3356 134.453C47.198 126.296 49.0687 118.089 50.9475 109.834C52.8263 101.579 54.7051 93.422 56.5839 85.3627C56.9586 84.0537 57.7394 82.897 58.8139 82.059C59.7419 81.1809 60.9664 80.683 62.2448 80.6642C62.699 80.6807 63.1517 80.6021 63.5737 80.4335C63.9958 80.2649 64.3778 80.0101 64.6954 79.6853C65.2517 79.087 65.5585 78.2993 65.5531 77.4829C65.5548 76.7602 65.3228 76.0564 64.8914 75.4762C64.363 74.8463 63.666 74.3795 62.8819 74.1302L60.4313 73.4695C59.6256 73.2718 58.8066 73.1328 57.9807 73.0535C57.173 72.8858 56.3538 72.7795 55.5301 72.7354H53.0795C47.1155 72.7314 41.2244 74.0434 35.8272 76.5774H35.5087C30.1669 79.0992 25.1683 82.2899 20.6335 86.0724C19.8857 86.7155 19.0629 87.266 18.1829 87.712C17.4147 88.1317 16.589 88.4367 15.7323 88.6174C15.3393 88.7759 14.9275 88.8829 14.507 88.9356C14.0989 88.96 13.6897 88.96 13.2817 88.9356C11.5679 88.9653 9.89966 88.384 8.57651 87.296C8.38046 87.1247 8.23342 86.9289 8.06188 86.7576C17.5457 75.0602 34.3079 71.6831 35.9008 71.0713C37.4936 70.4595 36.783 69.8966 35.6067 70.0924C20.609 72.9311 12.0564 79.0246 7.03263 85.3138C6.66886 84.4538 6.47737 83.5309 6.46899 82.5974C6.43452 82.0923 6.43452 81.5853 6.46899 81.0802C6.54725 80.5247 6.67017 79.9764 6.83658 79.4406C7.66115 76.927 9.08773 74.6524 10.9924 72.8143C12.8972 70.9762 15.2224 69.6303 17.7663 68.8933C23.9055 66.5904 30.4216 65.4533 36.979 65.5407H39.5522C47.5982 65.7595 55.5136 67.6253 62.8084 71.0223C63.8209 71.5 64.803 72.0394 65.7491 72.6375C70.7484 75.7698 73.0438 79.7832 72.6353 84.6775C72.3722 87.939 71.0466 91.0247 68.8614 93.4628C67.8346 94.7339 66.5556 95.7792 65.1049 96.533C63.6541 97.2868 62.063 97.7329 60.4313 97.8433C59.284 97.845 58.1675 98.2138 57.2455 98.8955C56.6084 99.3607 56.1431 100.023 55.9222 100.78V101.049C55.9381 101.494 56.0543 101.93 56.2622 102.324C56.4701 102.718 56.7643 103.06 57.123 103.325C58.1895 104.088 59.4908 104.452 60.7989 104.353C62.7328 104.348 64.6514 104.696 66.4598 105.381C68.3032 106.1 69.9019 107.331 71.0669 108.929C71.9181 110.006 72.5734 111.223 73.0029 112.526C73.3778 113.771 73.5515 115.068 73.5175 116.368V117.102Z" fill="black"/>
</g>
<path d="M1347.02 130.75H1413.97C1415.39 130.75 1416.55 131.903 1416.55 133.312V138.438C1416.55 139.847 1415.39 141 1413.97 141H1347.02C1345.61 141 1344.45 139.847 1344.45 138.438V133.312C1344.45 131.903 1345.61 130.75 1347.02 130.75ZM1336.72 79.5C1340.99 79.5 1344.45 82.9434 1344.45 87.1875C1344.45 88.3246 1344.19 89.3816 1343.74 90.3586L1355.39 97.3094C1357.87 98.7828 1361.07 97.95 1362.51 95.4516L1375.62 72.6133C1373.9 71.2039 1372.77 69.0898 1372.77 66.6875C1372.77 62.4434 1376.24 59 1380.5 59C1384.76 59 1388.22 62.4434 1388.22 66.6875C1388.22 69.0898 1387.1 71.2039 1385.38 72.6133L1398.49 95.4516C1399.93 97.95 1403.14 98.7828 1405.61 97.3094L1417.24 90.3586C1416.81 89.3977 1416.53 88.3246 1416.53 87.1875C1416.53 82.9434 1419.99 79.5 1424.26 79.5C1428.52 79.5 1432 82.9434 1432 87.1875C1432 91.4316 1428.54 94.875 1424.27 94.875C1423.86 94.875 1423.44 94.8109 1423.04 94.7469L1411.4 125.625H1349.6L1337.96 94.7469C1337.56 94.8109 1337.14 94.875 1336.72 94.875C1332.46 94.875 1329 91.4316 1329 87.1875C1329 82.9434 1332.46 79.5 1336.72 79.5Z" fill="black"/>
<path d="M874.158 104.291C873.292 106.205 872.335 108.507 871.287 111.195C870.239 113.884 869.1 116.687 867.869 119.604C866.639 122.52 865.317 125.414 863.904 128.285C862.537 131.156 861.079 133.731 859.529 136.01C858.025 138.243 856.453 140.066 854.812 141.479C853.217 142.891 851.577 143.598 849.891 143.598C848.478 143.598 847.316 143.37 846.404 142.914C845.493 142.504 844.786 141.957 844.285 141.273C843.784 140.635 843.419 139.929 843.191 139.154C843.009 138.334 842.918 137.559 842.918 136.83C842.918 135.736 843.077 134.62 843.396 133.48C843.761 132.341 844.194 131.293 844.695 130.336L870.877 82.1426C872.016 80.1374 873.087 78.5651 874.09 77.4258C875.138 76.2865 876.095 75.4434 876.961 74.8965C877.872 74.3496 878.67 74.0306 879.354 73.9395C880.037 73.8027 880.607 73.7344 881.062 73.7344C881.883 73.7344 882.635 74.0306 883.318 74.623C884.002 75.1699 884.344 76.1953 884.344 77.6992C884.344 79.1576 883.956 81.1628 883.182 83.7148C882.407 86.2669 880.971 89.5482 878.875 93.5586C882.43 93.2852 885.939 92.6927 889.402 91.7812C892.866 90.8242 895.965 89.5254 898.699 87.8848C901.479 86.2441 903.712 84.2617 905.398 81.9375C907.085 79.5677 907.928 76.8333 907.928 73.7344C907.928 71 907.472 68.4023 906.561 65.9414C905.695 63.4349 904.396 61.2474 902.664 59.3789C900.978 57.4648 898.882 55.9609 896.375 54.8672C893.868 53.7279 890.975 53.1582 887.693 53.1582C883.227 53.1582 879.376 53.5911 876.141 54.457C872.951 55.2773 870.193 56.3711 867.869 57.7383C865.59 59.1055 863.676 60.6777 862.127 62.4551C860.577 64.2324 859.233 66.0326 858.094 67.8555C857 69.6784 856.02 71.4785 855.154 73.2559C854.288 75.0332 853.377 76.6055 852.42 77.9727C851.508 79.3398 850.46 80.4564 849.275 81.3223C848.09 82.1426 846.632 82.5527 844.9 82.5527C842.667 82.5527 841.004 81.9831 839.91 80.8438C838.862 79.7044 838.338 78.0866 838.338 75.9902C838.338 73.8939 838.908 71.6152 840.047 69.1543C841.186 66.6478 842.804 64.1413 844.9 61.6348C846.997 59.1283 849.526 56.7357 852.488 54.457C855.496 52.1328 858.868 50.082 862.605 48.3047C866.342 46.5273 870.398 45.1146 874.773 44.0664C879.194 42.9727 883.842 42.4258 888.719 42.4258C893.276 42.4258 897.651 43.0866 901.844 44.4082C906.082 45.6842 909.819 47.6211 913.055 50.2188C916.29 52.8164 918.865 56.0749 920.779 59.9941C922.739 63.8678 923.719 68.4251 923.719 73.666C923.719 78.4512 922.557 82.7806 920.232 86.6543C917.954 90.4824 914.855 93.7409 910.936 96.4297C907.062 99.0729 902.573 101.124 897.469 102.582C892.365 103.995 886.987 104.701 881.336 104.701C880.151 104.701 878.943 104.678 877.713 104.633C876.528 104.587 875.343 104.473 874.158 104.291ZM934.52 101.146C936.297 100.053 938.12 99.0501 939.988 98.1387C941.902 97.2272 943.748 96.4525 945.525 95.8145C947.303 95.1309 948.989 94.6068 950.584 94.2422C952.225 93.832 953.683 93.627 954.959 93.627C957.01 93.627 958.582 94.1283 959.676 95.1309C960.815 96.0879 961.385 97.7285 961.385 100.053C961.385 100.554 961.362 101.101 961.316 101.693C961.271 102.24 961.18 102.833 961.043 103.471C960.815 104.656 960.132 106.046 958.992 107.641C957.853 109.236 956.508 110.899 954.959 112.631C953.455 114.363 951.814 116.117 950.037 117.895C948.305 119.626 946.688 121.244 945.184 122.748C943.725 124.206 942.495 125.482 941.492 126.576C940.535 127.67 940.057 128.422 940.057 128.832C940.057 129.197 940.079 129.447 940.125 129.584C940.171 129.721 940.376 129.789 940.74 129.789C943.201 128.741 945.936 127.488 948.943 126.029C951.997 124.525 955.027 122.999 958.035 121.449C961.043 119.9 963.891 118.396 966.58 116.938C969.269 115.434 971.548 114.135 973.416 113.041C973.826 112.813 974.236 112.631 974.646 112.494C975.102 112.312 975.512 112.221 975.877 112.221C976.697 112.221 977.381 112.494 977.928 113.041C978.475 113.588 978.748 114.317 978.748 115.229C978.748 116.277 978.292 117.484 977.381 118.852C976.515 120.173 975.034 121.563 972.938 123.021C971.342 124.024 969.542 125.163 967.537 126.439C965.577 127.67 963.504 128.969 961.316 130.336C959.174 131.658 956.987 132.956 954.754 134.232C952.566 135.508 950.447 136.648 948.396 137.65C946.346 138.653 944.409 139.473 942.586 140.111C940.809 140.704 939.259 141 937.938 141C934.793 141 932.423 140.248 930.828 138.744C929.279 137.24 928.504 135.303 928.504 132.934C928.504 132.569 928.527 132.296 928.572 132.113C928.891 130.108 929.484 128.171 930.35 126.303C931.215 124.434 932.195 122.657 933.289 120.971C934.383 119.285 935.522 117.689 936.707 116.186C937.892 114.636 938.963 113.201 939.92 111.879C940.923 110.512 941.743 109.258 942.381 108.119C943.019 106.98 943.338 105.932 943.338 104.975C943.338 104.747 943.292 104.519 943.201 104.291C943.11 104.063 942.905 103.949 942.586 103.949C942.039 103.949 941.128 104.154 939.852 104.564C938.621 104.975 937.299 105.521 935.887 106.205C934.474 106.889 933.13 107.686 931.854 108.598C930.577 109.464 929.666 110.398 929.119 111.4C928.39 112.676 927.547 114.294 926.59 116.254C925.633 118.214 924.63 120.264 923.582 122.406C922.579 124.548 921.6 126.667 920.643 128.764C919.686 130.86 918.865 132.66 918.182 134.164C917.635 135.486 916.906 136.671 915.994 137.719C915.128 138.767 914.171 139.656 913.123 140.385C912.075 141.114 911.004 141.684 909.91 142.094C908.816 142.504 907.814 142.709 906.902 142.709C905.854 142.709 905.011 142.436 904.373 141.889C903.781 141.342 903.484 140.453 903.484 139.223C903.484 138.721 903.553 138.106 903.689 137.377C903.872 136.602 904.214 135.759 904.715 134.848C905.535 133.298 906.355 131.612 907.176 129.789C908.042 127.966 909.021 125.893 910.115 123.568C911.209 121.199 912.462 118.51 913.875 115.502C915.333 112.449 917.042 108.939 919.002 104.975C918.364 104.428 917.817 103.767 917.361 102.992C916.951 102.172 916.746 101.169 916.746 99.9844C916.746 98.8906 916.974 97.9564 917.43 97.1816C917.885 96.3613 918.501 95.7005 919.275 95.1992C920.05 94.6979 920.939 94.3333 921.941 94.1055C922.99 93.832 924.083 93.6953 925.223 93.6953C926.408 93.6953 927.592 93.8092 928.777 94.0371C929.962 94.2194 931.01 94.5156 931.922 94.9258C932.879 95.3359 933.654 95.8372 934.246 96.4297C934.839 97.0221 935.135 97.7057 935.135 98.4805C935.135 98.6172 935.089 98.7995 934.998 99.0273C934.907 99.2552 934.793 99.5059 934.656 99.7793C934.565 100.053 934.474 100.303 934.383 100.531C934.292 100.759 934.246 100.941 934.246 101.078C934.246 101.169 934.269 101.215 934.314 101.215H934.383L934.52 101.146ZM996.59 100.668C996.362 100.622 996.157 100.6 995.975 100.6C995.792 100.6 995.587 100.6 995.359 100.6C993.628 100.6 992.01 100.941 990.506 101.625C989.002 102.309 987.612 103.22 986.336 104.359C985.105 105.453 983.989 106.706 982.986 108.119C982.029 109.532 981.163 110.945 980.389 112.357C979.614 113.725 978.953 115.046 978.406 116.322C977.905 117.598 977.518 118.669 977.244 119.535C978.839 118.715 980.48 117.781 982.166 116.732C983.898 115.684 985.516 114.682 987.02 113.725C988.523 112.768 989.822 111.902 990.916 111.127C992.055 110.352 992.853 109.828 993.309 109.555C995.359 108.279 996.772 107.094 997.547 106C998.322 104.861 998.709 103.881 998.709 103.061C998.709 102.377 998.481 101.83 998.025 101.42C997.615 101.01 997.137 100.759 996.59 100.668ZM999.051 91.2344C1002.83 91.2344 1005.66 92.1458 1007.53 93.9688C1009.4 95.7917 1010.33 98.321 1010.33 101.557C1010.33 103.471 1009.83 105.476 1008.83 107.572C1007.82 109.669 1006.09 111.811 1003.63 113.998C1001.17 116.14 997.866 118.35 993.719 120.629C989.617 122.862 984.467 125.118 978.27 127.396C978.497 128.718 979.204 129.766 980.389 130.541C981.574 131.27 983.146 131.635 985.105 131.635C987.202 131.635 989.435 131.339 991.805 130.746C994.22 130.108 996.59 129.311 998.914 128.354C1001.28 127.396 1003.59 126.371 1005.82 125.277C1008.05 124.138 1010.06 123.067 1011.83 122.064C1013.66 121.062 1015.16 120.196 1016.35 119.467C1017.58 118.738 1018.4 118.282 1018.81 118.1C1019.22 117.826 1019.58 117.667 1019.9 117.621C1020.26 117.576 1020.58 117.553 1020.86 117.553C1021.4 117.553 1021.86 117.689 1022.22 117.963C1022.59 118.191 1022.89 118.487 1023.11 118.852C1023.39 119.171 1023.57 119.535 1023.66 119.945C1023.75 120.31 1023.8 120.629 1023.8 120.902C1023.8 121.312 1023.75 121.814 1023.66 122.406C1023.57 122.953 1023.23 123.591 1022.63 124.32C1022.41 124.548 1021.63 125.163 1020.31 126.166C1019.03 127.169 1017.37 128.354 1015.32 129.721C1013.27 131.088 1010.88 132.546 1008.14 134.096C1005.45 135.6 1002.58 136.99 999.529 138.266C996.521 139.542 993.377 140.59 990.096 141.41C986.814 142.276 983.579 142.709 980.389 142.709C977.654 142.709 975.216 142.185 973.074 141.137C970.978 140.089 969.178 138.676 967.674 136.898C966.215 135.121 965.099 133.07 964.324 130.746C963.549 128.422 963.162 125.984 963.162 123.432C963.162 121.472 963.549 119.33 964.324 117.006C965.099 114.636 966.215 112.266 967.674 109.896C969.132 107.527 970.91 105.225 973.006 102.992C975.148 100.714 977.54 98.7083 980.184 96.9766C982.827 95.2448 985.721 93.8548 988.865 92.8066C992.055 91.7585 995.451 91.2344 999.051 91.2344ZM1038.15 138.676C1038.15 136.488 1038.63 134.255 1039.59 131.977C1040.59 129.698 1041.84 127.351 1043.35 124.936C1044.85 122.52 1046.49 120.082 1048.27 117.621C1050.05 115.115 1051.73 112.562 1053.33 109.965C1053.78 109.236 1054.15 108.552 1054.42 107.914C1054.7 107.23 1054.83 106.547 1054.83 105.863C1054.83 105.134 1054.63 104.542 1054.22 104.086C1053.81 103.585 1053.21 103.334 1052.44 103.334C1050.57 103.334 1048.77 103.744 1047.04 104.564C1045.31 105.339 1043.64 106.387 1042.05 107.709C1040.45 108.985 1038.93 110.466 1037.47 112.152C1036.06 113.839 1034.71 115.593 1033.44 117.416C1032.21 119.193 1031.04 120.971 1029.95 122.748C1028.86 124.525 1027.85 126.143 1026.94 127.602C1026.12 129.105 1025.37 130.746 1024.69 132.523C1024 134.301 1023.25 135.941 1022.43 137.445C1021.65 138.949 1020.77 140.202 1019.76 141.205C1018.76 142.253 1017.51 142.777 1016 142.777C1014.36 142.777 1013.06 142.253 1012.11 141.205C1011.15 140.157 1010.67 138.904 1010.67 137.445C1010.67 136.625 1010.97 135.349 1011.56 133.617C1012.15 131.885 1012.9 129.88 1013.82 127.602C1014.77 125.277 1015.84 122.816 1017.03 120.219C1018.21 117.621 1019.38 115.046 1020.52 112.494C1021.7 109.942 1022.79 107.549 1023.8 105.316C1024.85 103.038 1025.71 101.101 1026.39 99.5059C1027.21 97.5462 1028.29 96.0879 1029.61 95.1309C1030.97 94.1738 1032.32 93.6953 1033.64 93.6953C1034.78 93.6953 1035.78 94.1283 1036.65 94.9941C1037.56 95.8145 1038.02 97.0221 1038.02 98.6172C1038.02 99.8021 1037.74 101.101 1037.2 102.514C1038.43 101.374 1039.75 100.144 1041.16 98.8223C1042.57 97.5007 1044.1 96.293 1045.74 95.1992C1047.43 94.0599 1049.29 93.1257 1051.35 92.3965C1053.4 91.6673 1055.7 91.3027 1058.25 91.3027C1059.53 91.3027 1060.73 91.4622 1061.87 91.7812C1063.01 92.1003 1064.01 92.6016 1064.88 93.2852C1065.79 93.9688 1066.52 94.8574 1067.07 95.9512C1067.66 97.0449 1068 98.3665 1068.09 99.916C1069.14 98.8678 1070.28 97.8424 1071.51 96.8398C1072.74 95.7917 1074.06 94.8574 1075.48 94.0371C1076.93 93.2168 1078.51 92.556 1080.19 92.0547C1081.88 91.5534 1083.75 91.3027 1085.8 91.3027C1087.3 91.3027 1088.74 91.4622 1090.11 91.7812C1091.47 92.1003 1092.68 92.6471 1093.73 93.4219C1094.82 94.151 1095.67 95.1081 1096.26 96.293C1096.9 97.4779 1097.21 98.9362 1097.21 100.668C1097.21 103.402 1096.58 106 1095.3 108.461C1094.07 110.922 1092.61 113.178 1090.93 115.229C1090.38 115.912 1089.65 116.778 1088.74 117.826C1087.83 118.874 1086.94 119.991 1086.07 121.176C1085.21 122.361 1084.45 123.591 1083.82 124.867C1083.18 126.098 1082.86 127.26 1082.86 128.354C1082.86 129.356 1083.16 129.994 1083.75 130.268C1084.39 130.541 1085.21 130.678 1086.21 130.678C1088.12 130.678 1090.2 130.108 1092.43 128.969C1094.66 127.829 1096.83 126.462 1098.92 124.867C1101.07 123.227 1103.05 121.54 1104.87 119.809C1106.74 118.031 1108.22 116.55 1109.31 115.365C1109.59 115.046 1109.91 114.818 1110.27 114.682C1110.64 114.545 1111 114.477 1111.37 114.477C1112.19 114.477 1112.91 114.841 1113.55 115.57C1114.24 116.299 1114.58 117.257 1114.58 118.441C1114.58 119.353 1114.3 120.355 1113.76 121.449C1113.21 122.543 1112.28 123.614 1110.96 124.662C1108.49 127.032 1105.96 129.311 1103.37 131.498C1100.82 133.64 1098.22 135.554 1095.57 137.24C1092.98 138.881 1090.36 140.202 1087.71 141.205C1085.12 142.208 1082.52 142.709 1079.92 142.709C1076.55 142.709 1073.81 141.911 1071.72 140.316C1069.67 138.721 1068.64 136.192 1068.64 132.729C1068.64 130.45 1069.07 128.308 1069.94 126.303C1070.81 124.298 1071.88 122.383 1073.15 120.561C1074.43 118.692 1075.77 116.892 1077.19 115.16C1078.6 113.428 1079.83 111.697 1080.88 109.965C1081.33 109.236 1081.7 108.552 1081.97 107.914C1082.24 107.23 1082.38 106.547 1082.38 105.863C1082.38 105.134 1082.18 104.542 1081.77 104.086C1081.36 103.585 1080.76 103.334 1079.99 103.334C1078.12 103.334 1076.32 103.744 1074.59 104.564C1072.86 105.339 1071.19 106.387 1069.6 107.709C1068 108.985 1066.48 110.466 1065.02 112.152C1063.6 113.839 1062.26 115.593 1060.98 117.416C1059.75 119.193 1058.59 120.971 1057.5 122.748C1056.4 124.525 1055.4 126.143 1054.49 127.602C1053.67 129.105 1052.92 130.746 1052.23 132.523C1051.55 134.301 1050.8 135.941 1049.98 137.445C1049.2 138.949 1048.32 140.202 1047.31 141.205C1046.31 142.253 1045.06 142.777 1043.55 142.777C1043.01 142.777 1042.41 142.663 1041.78 142.436C1041.14 142.253 1040.54 141.98 1040 141.615C1039.5 141.251 1039.06 140.818 1038.7 140.316C1038.38 139.815 1038.2 139.268 1038.15 138.676ZM1122.64 81.8691C1122.64 80.821 1122.83 79.75 1123.19 78.6562C1123.6 77.5169 1124.19 76.4915 1124.97 75.5801C1125.74 74.6686 1126.7 73.9167 1127.84 73.3242C1129.02 72.7318 1130.41 72.4355 1132.01 72.4355C1134.65 72.4355 1136.5 72.9596 1137.55 74.0078C1138.6 75.0104 1139.12 76.2865 1139.12 77.8359C1139.12 78.7018 1138.94 79.6589 1138.57 80.707C1138.25 81.7552 1137.75 82.735 1137.07 83.6465C1136.38 84.5124 1135.5 85.2415 1134.4 85.834C1133.31 86.4264 1132.01 86.7227 1130.51 86.7227C1127.68 86.7227 1125.7 86.2897 1124.56 85.4238C1123.42 84.5124 1122.78 83.3275 1122.64 81.8691ZM1115.12 97.25C1115.9 95.974 1116.79 95.0625 1117.79 94.5156C1118.79 93.9688 1119.82 93.6953 1120.87 93.6953C1122.6 93.6953 1124.08 94.265 1125.31 95.4043C1126.59 96.498 1127.22 97.9108 1127.22 99.6426C1127.18 100.053 1127.11 100.463 1127.02 100.873C1126.97 101.283 1126.84 101.693 1126.61 102.104C1125.97 103.288 1125.45 104.291 1125.04 105.111C1124.63 105.932 1124.24 106.706 1123.88 107.436C1123.56 108.119 1123.24 108.803 1122.92 109.486C1122.6 110.17 1122.21 110.99 1121.76 111.947C1121.21 113.087 1120.59 114.34 1119.91 115.707C1119.23 117.029 1118.57 118.396 1117.93 119.809C1117.34 121.221 1116.81 122.611 1116.36 123.979C1115.95 125.346 1115.74 126.599 1115.74 127.738C1115.74 128.969 1116.04 129.789 1116.63 130.199C1117.27 130.564 1118.16 130.746 1119.29 130.746C1120.57 130.746 1121.89 130.473 1123.26 129.926C1124.67 129.379 1126.09 128.673 1127.5 127.807C1128.91 126.941 1130.3 125.961 1131.67 124.867C1133.04 123.728 1134.31 122.589 1135.5 121.449C1136.73 120.31 1137.84 119.216 1138.85 118.168C1139.89 117.12 1140.76 116.186 1141.44 115.365C1142.35 114.499 1143.27 114.066 1144.18 114.066C1145 114.066 1145.66 114.431 1146.16 115.16C1146.71 115.889 1146.98 116.824 1146.98 117.963C1146.98 119.011 1146.71 120.128 1146.16 121.312C1145.66 122.497 1144.82 123.614 1143.63 124.662C1141.31 127.032 1138.94 129.311 1136.52 131.498C1134.11 133.64 1131.62 135.554 1129.07 137.24C1126.56 138.881 1124.03 140.202 1121.48 141.205C1118.93 142.208 1116.36 142.709 1113.76 142.709C1110.07 142.709 1107.15 141.775 1105.01 139.906C1102.91 137.992 1101.86 135.03 1101.86 131.02C1101.86 128.923 1102.16 126.872 1102.75 124.867C1103.34 122.862 1104.05 120.925 1104.87 119.057C1105.69 117.143 1106.56 115.32 1107.47 113.588C1108.38 111.811 1109.15 110.124 1109.79 108.529C1110.02 107.937 1110.41 107.025 1110.96 105.795C1111.55 104.564 1112.16 103.311 1112.8 102.035C1113.53 100.531 1114.3 98.9362 1115.12 97.25ZM1211.79 124.662C1209.78 126.941 1207.43 129.174 1204.74 131.361C1202.1 133.503 1199.37 135.417 1196.54 137.104C1193.72 138.79 1190.94 140.134 1188.2 141.137C1185.47 142.185 1183.01 142.709 1180.82 142.709C1178.63 142.709 1176.85 142.094 1175.49 140.863C1174.12 139.633 1173.44 137.536 1173.44 134.574C1173.44 132.478 1173.8 130.04 1174.53 127.26C1173.34 129.037 1171.86 130.837 1170.09 132.66C1168.31 134.483 1166.28 136.146 1164 137.65C1161.72 139.154 1159.17 140.362 1156.35 141.273C1153.52 142.23 1150.44 142.709 1147.12 142.709C1145.61 142.709 1144.15 142.549 1142.74 142.23C1141.38 141.911 1140.17 141.365 1139.12 140.59C1138.07 139.815 1137.23 138.79 1136.59 137.514C1135.95 136.192 1135.63 134.551 1135.63 132.592C1135.63 132.546 1135.72 131.863 1135.91 130.541C1136.09 129.174 1136.66 127.055 1137.62 124.184C1138.62 121.267 1140.14 117.507 1142.2 112.904C1144.25 108.301 1147.14 102.719 1150.88 96.1562C1151.83 94.4245 1152.93 93.194 1154.16 92.4648C1155.43 91.6901 1156.8 91.3027 1158.26 91.3027C1158.9 91.3027 1159.56 91.3939 1160.24 91.5762C1160.93 91.7129 1161.56 91.9635 1162.16 92.3281C1162.75 92.6471 1163.23 93.0801 1163.59 93.627C1163.96 94.1283 1164.14 94.7207 1164.14 95.4043C1164.14 95.86 1164.07 96.293 1163.93 96.7031C1163.71 97.4779 1163.2 98.5033 1162.43 99.7793C1161.7 101.01 1160.83 102.445 1159.83 104.086C1158.83 105.681 1157.76 107.413 1156.62 109.281C1155.53 111.15 1154.5 113.087 1153.54 115.092C1152.59 117.097 1151.77 119.148 1151.08 121.244C1150.4 123.295 1150.01 125.3 1149.92 127.26C1149.92 128.08 1150.15 128.832 1150.6 129.516C1151.06 130.199 1151.81 130.541 1152.86 130.541C1155.82 130.541 1158.65 129.721 1161.34 128.08C1164.02 126.439 1166.51 124.411 1168.79 121.996C1171.07 119.535 1173.12 116.915 1174.94 114.135C1176.81 111.309 1178.36 108.734 1179.59 106.41C1180.45 104.861 1181.21 103.197 1181.84 101.42C1182.53 99.6426 1183.26 98.002 1184.03 96.498C1184.81 94.9941 1185.69 93.7409 1186.7 92.7383C1187.7 91.7357 1188.95 91.2344 1190.46 91.2344C1192.1 91.2344 1193.4 91.7585 1194.35 92.8066C1195.31 93.8548 1195.79 95.1081 1195.79 96.5664C1195.79 97.3867 1195.47 98.526 1194.83 99.9844C1194.24 101.397 1193.46 103.038 1192.51 104.906C1191.6 106.729 1190.59 108.689 1189.5 110.785C1188.41 112.882 1187.38 115.023 1186.42 117.211C1185.51 119.353 1184.74 121.472 1184.1 123.568C1183.51 125.619 1183.21 127.533 1183.21 129.311C1183.21 130.951 1184.21 131.771 1186.22 131.771C1187.63 131.771 1189.39 131.361 1191.48 130.541C1193.58 129.721 1195.77 128.581 1198.04 127.123C1200.37 125.619 1202.67 123.865 1204.95 121.859C1207.27 119.854 1209.32 117.689 1211.1 115.365L1211.79 124.662ZM1224.09 138.676C1224.09 136.488 1224.57 134.255 1225.53 131.977C1226.53 129.698 1227.78 127.351 1229.29 124.936C1230.79 122.52 1232.43 120.082 1234.21 117.621C1235.98 115.115 1237.67 112.562 1239.27 109.965C1239.72 109.236 1240.09 108.552 1240.36 107.914C1240.63 107.23 1240.77 106.547 1240.77 105.863C1240.77 105.134 1240.56 104.542 1240.15 104.086C1239.74 103.585 1239.15 103.334 1238.38 103.334C1236.51 103.334 1234.71 103.744 1232.98 104.564C1231.24 105.339 1229.58 106.387 1227.99 107.709C1226.39 108.985 1224.86 110.466 1223.41 112.152C1221.99 113.839 1220.65 115.593 1219.37 117.416C1218.14 119.193 1216.98 120.971 1215.89 122.748C1214.79 124.525 1213.79 126.143 1212.88 127.602C1212.06 129.105 1211.31 130.746 1210.62 132.523C1209.94 134.301 1209.19 135.941 1208.37 137.445C1207.59 138.949 1206.7 140.202 1205.7 141.205C1204.7 142.253 1203.45 142.777 1201.94 142.777C1200.3 142.777 1199 142.253 1198.04 141.205C1197.09 140.157 1196.61 138.904 1196.61 137.445C1196.61 136.625 1196.91 135.349 1197.5 133.617C1198.09 131.885 1198.84 129.88 1199.75 127.602C1200.71 125.277 1201.78 122.816 1202.97 120.219C1204.15 117.621 1205.31 115.046 1206.45 112.494C1207.64 109.942 1208.73 107.549 1209.73 105.316C1210.78 103.038 1211.65 101.101 1212.33 99.5059C1213.15 97.5462 1214.22 96.0879 1215.54 95.1309C1216.91 94.1738 1218.26 93.6953 1219.58 93.6953C1220.72 93.6953 1221.72 94.1283 1222.59 94.9941C1223.5 95.8145 1223.95 97.0221 1223.95 98.6172C1223.95 99.8021 1223.68 101.101 1223.13 102.514C1224.36 101.374 1225.68 100.144 1227.1 98.8223C1228.51 97.5007 1230.04 96.293 1231.68 95.1992C1233.36 94.0599 1235.23 93.1257 1237.28 92.3965C1239.33 91.6673 1241.64 91.3027 1244.19 91.3027C1245.46 91.3027 1246.67 91.4622 1247.81 91.7812C1248.95 92.1003 1249.95 92.6016 1250.82 93.2852C1251.73 93.9688 1252.46 94.8574 1253.01 95.9512C1253.6 97.0449 1253.94 98.3665 1254.03 99.916C1255.08 98.8678 1256.22 97.8424 1257.45 96.8398C1258.68 95.7917 1260 94.8574 1261.41 94.0371C1262.87 93.2168 1264.44 92.556 1266.13 92.0547C1267.82 91.5534 1269.69 91.3027 1271.74 91.3027C1273.24 91.3027 1274.68 91.4622 1276.04 91.7812C1277.41 92.1003 1278.62 92.6471 1279.67 93.4219C1280.76 94.151 1281.6 95.1081 1282.2 96.293C1282.83 97.4779 1283.15 98.9362 1283.15 100.668C1283.15 103.402 1282.51 106 1281.24 108.461C1280.01 110.922 1278.55 113.178 1276.86 115.229C1276.32 115.912 1275.59 116.778 1274.68 117.826C1273.76 118.874 1272.88 119.991 1272.01 121.176C1271.14 122.361 1270.39 123.591 1269.75 124.867C1269.12 126.098 1268.8 127.26 1268.8 128.354C1268.8 129.356 1269.09 129.994 1269.69 130.268C1270.32 130.541 1271.14 130.678 1272.15 130.678C1274.06 130.678 1276.13 130.108 1278.37 128.969C1280.6 127.829 1282.76 126.462 1284.86 124.867C1287 123.227 1288.99 121.54 1290.81 119.809C1292.68 118.031 1294.16 116.55 1295.25 115.365C1295.53 115.046 1295.84 114.818 1296.21 114.682C1296.57 114.545 1296.94 114.477 1297.3 114.477C1298.12 114.477 1298.85 114.841 1299.49 115.57C1300.17 116.299 1300.52 117.257 1300.52 118.441C1300.52 119.353 1300.24 120.355 1299.7 121.449C1299.15 122.543 1298.21 123.614 1296.89 124.662C1294.43 127.032 1291.9 129.311 1289.3 131.498C1286.75 133.64 1284.15 135.554 1281.51 137.24C1278.91 138.881 1276.29 140.202 1273.65 141.205C1271.05 142.208 1268.46 142.709 1265.86 142.709C1262.49 142.709 1259.75 141.911 1257.65 140.316C1255.6 138.721 1254.58 136.192 1254.58 132.729C1254.58 130.45 1255.01 128.308 1255.88 126.303C1256.74 124.298 1257.81 122.383 1259.09 120.561C1260.37 118.692 1261.71 116.892 1263.12 115.16C1264.54 113.428 1265.77 111.697 1266.81 109.965C1267.27 109.236 1267.63 108.552 1267.91 107.914C1268.18 107.23 1268.32 106.547 1268.32 105.863C1268.32 105.134 1268.11 104.542 1267.7 104.086C1267.29 103.585 1266.7 103.334 1265.93 103.334C1264.06 103.334 1262.26 103.744 1260.53 104.564C1258.79 105.339 1257.13 106.387 1255.54 107.709C1253.94 108.985 1252.41 110.466 1250.96 112.152C1249.54 113.839 1248.2 115.593 1246.92 117.416C1245.69 119.193 1244.53 120.971 1243.44 122.748C1242.34 124.525 1241.34 126.143 1240.43 127.602C1239.61 129.105 1238.86 130.746 1238.17 132.523C1237.49 134.301 1236.74 135.941 1235.92 137.445C1235.14 138.949 1234.25 140.202 1233.25 141.205C1232.25 142.253 1230.99 142.777 1229.49 142.777C1228.94 142.777 1228.35 142.663 1227.71 142.436C1227.07 142.253 1226.48 141.98 1225.94 141.615C1225.43 141.251 1225 140.818 1224.64 140.316C1224.32 139.815 1224.14 139.268 1224.09 138.676Z" fill="black"/>
<defs>
<clipPath id="clip0">
<rect width="800" height="110" fill="white" transform="translate(0 57)"/>
</clipPath>
</defs>
</svg>
