<svg xmlns="http://www.w3.org/2000/svg" viewBox="0 0 326.45 44.95"><defs><style>.cls-1{fill:none;}.cls-2{fill:#42b549;}</style></defs><g id="Layer_2" data-name="Layer 2"><g id="Layer_1-2" data-name="Layer 1"><path d="M62.78,25.11c0,6.05-4,9.75-8.89,9.75S45,31.16,45,25.11V21.84c0-6.05,4-9.75,8.93-9.75s8.89,3.7,8.89,9.75Zm-4.29-3.52c0-3.53-2.06-5.41-4.6-5.41s-4.63,1.88-4.63,5.41v3.78c0,3.52,2.06,5.41,4.63,5.41s4.6-1.89,4.6-5.41Z"/><path d="M83.15,25.11c0,6.05-4,9.75-8.89,9.75s-8.94-3.7-8.94-9.75V21.84c0-6.05,4-9.75,8.94-9.75s8.89,3.7,8.89,9.75Zm-4.3-3.52c0-3.53-2.06-5.41-4.59-5.41s-4.64,1.88-4.64,5.41v3.78c0,3.52,2.06,5.41,4.64,5.41s4.59-1.89,4.59-5.41Z"/><path d="M95.09,23.47l6.66,7.05a2.22,2.22,0,0,1,.69,1.5,2.14,2.14,0,0,1-2.15,2.19,2,2,0,0,1-1.46-.6L90.54,25v7a2.16,2.16,0,0,1-2.15,2.15A2.13,2.13,0,0,1,86.25,32V4.15A2.13,2.13,0,0,1,88.39,2a2.16,2.16,0,0,1,2.15,2.15V21.93l8.29-8.59a1.92,1.92,0,0,1,1.46-.56,2.16,2.16,0,0,1,2.15,2.15,2.29,2.29,0,0,1-.69,1.54Z"/><path d="M133.19,21.63V32.06A2.15,2.15,0,0,1,131,34.21a2.13,2.13,0,0,1-2.15-2.15V21.2c0-3.31-2-5-4.38-5a4.37,4.37,0,0,0-2.83,1,12.52,12.52,0,0,1,.77,4.42V32.06a2.12,2.12,0,0,1-2.14,2.15,2.15,2.15,0,0,1-2.15-2.15V21.2c0-3.31-1.94-5-4.38-5s-4.38,1.71-4.38,5V32.06a2.15,2.15,0,0,1-4.3,0V21.63c0-5.93,3.91-9.54,8.68-9.54a8.92,8.92,0,0,1,5.62,2.07,7.1,7.1,0,0,1,5.11-2.07C129.28,12.09,133.19,15.7,133.19,21.63Z"/><path d="M143.8,34.86a7.57,7.57,0,0,1-7.52-7.56,7,7,0,0,1,7-7,6.07,6.07,0,0,1,3.78,1.2v-.9c0-2.58-1.24-3.78-3.82-3.78H138.9a2,2,0,1,1,0-4.08h4.51c5,0,8,3,8,7.94V27.3A7.58,7.58,0,0,1,143.8,34.86ZM143.54,24a3.55,3.55,0,1,0,3.52,3.52A3.54,3.54,0,0,0,143.54,24Z"/><path d="M163.35,16.82H162c-2.23,0-3.39,1.2-3.39,3.35V32.06a2.15,2.15,0,0,1-2.15,2.15,2.13,2.13,0,0,1-2.15-2.15V20c0-4.64,2.67-7.3,7.3-7.3h1.77a2.06,2.06,0,0,1,2.06,2.06A2.09,2.09,0,0,1,163.35,16.82Z"/><path d="M176.7,23.47l6.66,7.05a2.22,2.22,0,0,1,.69,1.5,2.14,2.14,0,0,1-2.15,2.19,2,2,0,0,1-1.46-.6L172.15,25v7A2.16,2.16,0,0,1,170,34.17,2.13,2.13,0,0,1,167.86,32V4.15A2.13,2.13,0,0,1,170,2a2.16,2.16,0,0,1,2.14,2.15V21.93l8.29-8.59a1.92,1.92,0,0,1,1.46-.56,2.16,2.16,0,0,1,2.15,2.15,2.29,2.29,0,0,1-.69,1.54Z"/><path d="M250.76,14.89V25.54c0,3.3,2.1,5.24,4.63,5.24s4.6-1.94,4.6-5.24V14.89a2.15,2.15,0,0,1,2.15-2.15,2.13,2.13,0,0,1,2.15,2.15V25.11c0,6.05-4,9.75-8.9,9.75s-8.93-3.7-8.93-9.75V14.89a2.16,2.16,0,0,1,2.19-2.15A2.12,2.12,0,0,1,250.76,14.89Z"/><path d="M280.61,13.94V4.15A2.16,2.16,0,0,1,282.76,2a2.13,2.13,0,0,1,2.15,2.15V25.07c0,6.14-4,9.79-8.89,9.79s-8.94-3.7-8.94-9.79V21.41c0-5.79,3.78-9.31,8.42-9.31A8,8,0,0,1,280.61,13.94Zm-9.23,11.43c0,3.52,2.06,5.41,4.64,5.41s4.59-1.89,4.59-5.41V20.94A4.7,4.7,0,0,0,276,16.17c-2.58,0-4.64,1.89-4.64,5.42Z"/><path d="M301.23,13.94V4.15A2.16,2.16,0,0,1,303.38,2a2.13,2.13,0,0,1,2.15,2.15V25.07c0,6.14-4,9.79-8.89,9.79s-8.93-3.7-8.93-9.79V21.41c0-5.79,3.77-9.31,8.41-9.31A8,8,0,0,1,301.23,13.94ZM292,25.37c0,3.52,2.06,5.41,4.64,5.41s4.59-1.89,4.59-5.41V20.94a4.7,4.7,0,0,0-4.59-4.77c-2.58,0-4.64,1.89-4.64,5.42Z"/><path d="M326.45,14.89V36.06c0,5.58-3.31,8.89-8.89,8.89H311.5a2,2,0,0,1,0-4.08h5.76c3.22,0,4.89-1.68,4.89-4.85V33.1A8.39,8.39,0,0,1,317,34.86c-4.85,0-8.41-3.87-8.41-9.19V14.89a2.13,2.13,0,1,1,4.25,0V25.45c0,3.35,2.1,5.28,4.64,5.28a4.61,4.61,0,0,0,4.63-4.21V14.89a2.15,2.15,0,1,1,4.3,0Z"/><path class="cls-1" d="M230.19,21.22a4.21,4.21,0,0,0-1.87-1.42,6.53,6.53,0,0,0-2.32-.42,2.26,2.26,0,0,1-1.49-.42A1.21,1.21,0,0,1,224,18v-.14a1.46,1.46,0,0,1,.54-.78,2.16,2.16,0,0,1,1.3-.42,4.84,4.84,0,0,0,3.43-1.79,6.07,6.07,0,0,0,1.55-3.59q.25-3-2.81-4.92c-4.6-1.37-9.8-.25-12.34,1.64l.13-.06a16.48,16.48,0,0,1,7.05-1.59l1,0a6.85,6.85,0,0,1,1,.13,7.21,7.21,0,0,1,1,.17l1,.27a1.72,1.72,0,0,1,.82.58,1.34,1.34,0,0,1-.07,1.72,1.33,1.33,0,0,1-1,.4,2.08,2.08,0,0,0-1.39.57,2.65,2.65,0,0,0-.85,1.32q-1.16,5-2.29,10t-2.29,10.06c-.07.24-.14.45-.22.65s-.18.4-.28.6h1l2.09,0a9.09,9.09,0,0,0,2-.28A8.11,8.11,0,0,0,226,32a9.87,9.87,0,0,0,1.82-1.17A10.27,10.27,0,0,0,230,28.2a7.5,7.5,0,0,0,1.15-3.34,1,1,0,0,0,.05-.3v-.3a5.31,5.31,0,0,0-.25-1.57A4.83,4.83,0,0,0,230.19,21.22Z"/><path class="cls-2" d="M228,6.39a12.2,12.2,0,0,0-1.2-.66,24.1,24.1,0,0,0-9.49-2.24h-1.05a21.48,21.48,0,0,0-7.84,1.37A6.66,6.66,0,0,0,204,9.17c-.06.23-.11.45-.15.67a4.49,4.49,0,0,0,0,.62,2.92,2.92,0,0,0,.23,1.11c2-2.58,5.54-5.07,11.66-6.22.48-.08.69.15.12.4s-7.5,1.63-11.35,6.46a2.13,2.13,0,0,0,.21.22,2.9,2.9,0,0,0,1.92.67l.49,0a1.76,1.76,0,0,0,.5-.13,3.72,3.72,0,0,0,1-.37,4.93,4.93,0,0,0,1-.67A28,28,0,0,1,215.69,8C218.23,6.14,223.43,5,228,6.39Z"/><path d="M242.82,20.05a11,11,0,0,0-4-2.9A13.59,13.59,0,0,0,242,14.68a5.66,5.66,0,0,0,1.54-3.62q.45-5.05-6.23-7.93A40.19,40.19,0,0,0,222.47,0h-1.3a37.1,37.1,0,0,0-12.72,2q-5.82,2.05-6.95,6.47a5.89,5.89,0,0,0-.16.67c0,.21-.06.42-.1.62a1.77,1.77,0,0,1,0,.32c0,.12,0,.22,0,.32A5,5,0,0,0,202.53,14a14.13,14.13,0,0,0-1.2,3.68c-.1.72.56,1,.66.47a11.64,11.64,0,0,1,1.08-3.64,5.68,5.68,0,0,0,3.56,1.3,6.22,6.22,0,0,0,.94-.07,9.47,9.47,0,0,0,1-.22c.3-.1.61-.23,1-.38a6.11,6.11,0,0,0,.94-.52c-.63,2.73-1.25,5.45-1.87,8.19s-1.25,5.47-1.91,8.23a2.3,2.3,0,0,1-.75,1.2,2.38,2.38,0,0,1-1.35.65h-.15a1.43,1.43,0,0,0-1.07.4,1.34,1.34,0,0,0-.37.95,1.35,1.35,0,0,0,.37.92,1.49,1.49,0,0,0,1.17.42h24.81a18,18,0,0,0,2-.12,19.57,19.57,0,0,0,2.09-.38,18.46,18.46,0,0,0,6.8-3,9.74,9.74,0,0,0,4-5.94,7.17,7.17,0,0,0,.15-.83,7.42,7.42,0,0,0,.05-.77A6.51,6.51,0,0,0,242.82,20.05Zm-11.58,4.51a1,1,0,0,1-.05.3A7.5,7.5,0,0,1,230,28.2a10.27,10.27,0,0,1-2.24,2.59A9.87,9.87,0,0,1,226,32a8.11,8.11,0,0,1-1.72.62,9.09,9.09,0,0,1-2,.28l-2.09,0h-1c.1-.2.19-.4.28-.6s.15-.41.22-.65q1.14-5,2.29-10.06t2.29-10a2.65,2.65,0,0,1,.85-1.32,2.08,2.08,0,0,1,1.39-.57,1.33,1.33,0,0,0,1-.4,1.34,1.34,0,0,0,.07-1.72,1.72,1.72,0,0,0-.82-.58l-1-.27a7.21,7.21,0,0,0-1-.17,6.85,6.85,0,0,0-1-.13l-1,0A16.48,16.48,0,0,0,215.82,8l-.13.06a28,28,0,0,0-6.08,3.88,4.93,4.93,0,0,1-1,.67,3.72,3.72,0,0,1-1,.37,1.76,1.76,0,0,1-.5.13l-.49,0a2.9,2.9,0,0,1-1.92-.67,2.13,2.13,0,0,1-.21-.22c3.85-4.83,10.71-6.18,11.35-6.46s.36-.48-.12-.4c-6.12,1.15-9.62,3.64-11.66,6.22a2.92,2.92,0,0,1-.23-1.11,4.49,4.49,0,0,1,0-.62c0-.22.09-.44.15-.67a6.66,6.66,0,0,1,4.42-4.31,21.48,21.48,0,0,1,7.84-1.37h1.05a24.1,24.1,0,0,1,9.49,2.24,12.2,12.2,0,0,1,1.2.66q3.06,1.92,2.81,4.92a6.07,6.07,0,0,1-1.55,3.59,4.84,4.84,0,0,1-3.43,1.79,2.16,2.16,0,0,0-1.3.42,1.46,1.46,0,0,0-.54.78V18a1.21,1.21,0,0,0,.49.93,2.26,2.26,0,0,0,1.49.42,6.53,6.53,0,0,1,2.32.42,4.21,4.21,0,0,1,1.87,1.42,4.83,4.83,0,0,1,.8,1.47,5.31,5.31,0,0,1,.25,1.57Z"/><path class="cls-1" d="M29,21.22a4.23,4.23,0,0,0-1.88-1.42,6.47,6.47,0,0,0-2.31-.42,2.28,2.28,0,0,1-1.5-.42,1.21,1.21,0,0,1-.49-.93v-.14a1.46,1.46,0,0,1,.54-.77,2.19,2.19,0,0,1,1.3-.43A4.84,4.84,0,0,0,28.1,14.9a6.12,6.12,0,0,0,1.54-3.59q.25-3-2.81-4.92C22.24,5,17,6.14,14.49,8L14.62,8a16.52,16.52,0,0,1,7.05-1.59l1,0a6.67,6.67,0,0,1,1,.13,7,7,0,0,1,1,.17l1,.27a1.77,1.77,0,0,1,.82.58,1.37,1.37,0,0,1,.27.82,1.31,1.31,0,0,1-.35.9,1.33,1.33,0,0,1-1,.4,2.08,2.08,0,0,0-1.4.57,2.63,2.63,0,0,0-.84,1.32q-1.15,5-2.3,10T18.53,31.63c-.07.24-.14.45-.22.65s-.18.4-.28.6H19c.73,0,1.43,0,2.1,0a9.18,9.18,0,0,0,2-.28A8.53,8.53,0,0,0,24.79,32a10.22,10.22,0,0,0,1.82-1.17,10.42,10.42,0,0,0,2.23-2.59A7.38,7.38,0,0,0,30,24.86a1,1,0,0,0,.05-.3v-.3a5,5,0,0,0-.25-1.57A4.79,4.79,0,0,0,29,21.22Z"/><path class="cls-2" d="M26.83,6.39a11.15,11.15,0,0,0-1.2-.66,24,24,0,0,0-9.49-2.24H15.09A21.48,21.48,0,0,0,7.25,4.86,6.64,6.64,0,0,0,2.84,9.17a4.27,4.27,0,0,0-.15.67,4.56,4.56,0,0,0,0,.62,2.92,2.92,0,0,0,.23,1.11C4.92,9,8.41,6.51,14.53,5.35c.48-.08.7.15.12.4S7.16,7.38,3.3,12.21c.07.07.13.15.21.22a2.94,2.94,0,0,0,1.92.67,4.18,4.18,0,0,0,.5,0,2,2,0,0,0,.5-.13,3.66,3.66,0,0,0,1-.37,5,5,0,0,0,1-.67A28.41,28.41,0,0,1,14.49,8C17,6.14,22.24,5,26.83,6.39Z"/><path d="M41.62,20.05a11,11,0,0,0-4-2.9,13.38,13.38,0,0,0,3.14-2.47,5.61,5.61,0,0,0,1.54-3.62Q42.76,6,36.07,3.13A40.2,40.2,0,0,0,21.27,0H20A37.16,37.16,0,0,0,7.25,2Q1.45,4.06.3,8.48a5.89,5.89,0,0,0-.16.67l-.09.62a1.82,1.82,0,0,1,0,.32c0,.12,0,.22,0,.32A5,5,0,0,0,1.34,14,14.2,14.2,0,0,0,.13,17.67c-.1.72.56,1,.66.47A11.91,11.91,0,0,1,1.87,14.5a5.66,5.66,0,0,0,3.56,1.3,6.22,6.22,0,0,0,.94-.07,6.86,6.86,0,0,0,1-.22c.3-.11.62-.23,1-.38a6.72,6.72,0,0,0,.95-.52Q8.33,18.7,7.39,22.8C6.78,25.53,6.14,28.27,5.48,31a2.31,2.31,0,0,1-.75,1.19,2.38,2.38,0,0,1-1.34.65H3.23a1.44,1.44,0,0,0-1.07.4,1.34,1.34,0,0,0-.37.95,1.35,1.35,0,0,0,.37.92,1.53,1.53,0,0,0,1.18.42H28.15a18,18,0,0,0,2-.12,19.12,19.12,0,0,0,2.09-.38,18.6,18.6,0,0,0,6.81-3,9.77,9.77,0,0,0,4-5.94,5.84,5.84,0,0,0,.2-1.6A6.51,6.51,0,0,0,41.62,20.05ZM30,24.56a1,1,0,0,1-.05.3,7.38,7.38,0,0,1-1.15,3.34,10.42,10.42,0,0,1-2.23,2.59A10.22,10.22,0,0,1,24.79,32a8.53,8.53,0,0,1-1.72.62,9.18,9.18,0,0,1-2,.28c-.67,0-1.37,0-2.1,0H18c.1-.2.2-.4.28-.6s.15-.41.22-.65q1.14-5,2.29-10.06t2.3-10A2.63,2.63,0,0,1,24,10.24a2.08,2.08,0,0,1,1.4-.57,1.33,1.33,0,0,0,1-.4,1.31,1.31,0,0,0,.35-.9,1.37,1.37,0,0,0-.27-.82A1.77,1.77,0,0,0,25.66,7l-1-.27a7,7,0,0,0-1-.17,6.67,6.67,0,0,0-1-.13l-1,0A16.52,16.52,0,0,0,14.62,8L14.49,8a28.41,28.41,0,0,0-6.07,3.88,5,5,0,0,1-1,.67,3.66,3.66,0,0,1-1,.37,2,2,0,0,1-.5.13,4.18,4.18,0,0,1-.5,0,2.94,2.94,0,0,1-1.92-.67c-.08-.07-.14-.15-.21-.22C7.16,7.38,14,6,14.65,5.75s.36-.48-.12-.4C8.41,6.51,4.92,9,2.87,11.57a2.92,2.92,0,0,1-.23-1.11,4.56,4.56,0,0,1,0-.62,4.27,4.27,0,0,1,.15-.67A6.64,6.64,0,0,1,7.25,4.86a21.48,21.48,0,0,1,7.84-1.37h1.05a24,24,0,0,1,9.49,2.24,11.15,11.15,0,0,1,1.2.66q3.06,1.92,2.81,4.92A6.12,6.12,0,0,1,28.1,14.9a4.84,4.84,0,0,1-3.44,1.79,2.19,2.19,0,0,0-1.3.43,1.46,1.46,0,0,0-.54.77V18a1.21,1.21,0,0,0,.49.93,2.28,2.28,0,0,0,1.5.42,6.47,6.47,0,0,1,2.31.42A4.23,4.23,0,0,1,29,21.22a4.79,4.79,0,0,1,.79,1.47A5,5,0,0,1,30,24.26Z"/></g></g></svg>